{"asset":{"version":"2.0","generator":"Blockbench 5.0.3 glTF exporter"},"scenes":[{"nodes":[12],"name":"blockbench_export"}],"scene":0,"nodes":[{"translation":[0,0.453125,-0.003124999999999989],"name":"bone"},{"translation":[0,-0.1875,0],"name":"bone8"},{"translation":[0,-0.1875,0],"name":"bone3","children":[1]},{"translation":[0.15625,-0.0625,0],"name":"rleg","children":[2]},{"translation":[0,-0.1875,0],"name":"bone7"},{"translation":[0,-0.1875,0],"name":"bone5","children":[4]},{"translation":[-0.15625,-0.0625,0],"name":"lleg","children":[5]},{"translation":[0.25,0.03125,0.40625],"name":"bone2"},{"translation":[0.25,0.375,-0.375],"name":"rarm","children":[7]},{"translation":[-0.25,0.03125,0.40625],"name":"bone4"},{"translation":[-0.25,0.375,-0.375],"name":"larm","children":[9]},{"name":"bone6","children":[0,3,6,8,10]},{"translation":[0,0.5,0],"name":"bone6","mesh":0,"children":[11],"skin":0}],"bufferViews":[{"buffer":0,"byteOffset":0,"byteLength":12576,"target":34962,"byteStride":12},{"buffer":0,"byteOffset":12576,"byteLength":12576,"target":34962,"byteStride":12},{"buffer":0,"byteOffset":25152,"byteLength":8384,"target":34962,"byteStride":8},{"buffer":0,"byteOffset":33536,"byteLength":8384,"target":34962,"byteStride":8},{"buffer":0,"byteOffset":41920,"byteLength":16768,"target":34962,"byteStride":16},{"buffer":0,"byteOffset":58688,"byteLength":528,"target":34963},{"buffer":0,"byteOffset":59216,"byteLength":60,"target":34963},{"buffer":0,"byteOffset":59276,"byteLength":2256,"target":34963},{"buffer":0,"byteOffset":61532,"byteLength":768},{"buffer":0,"byteOffset":62300,"byteLength":4},{"buffer":0,"byteOffset":62304,"byteLength":16},{"buffer":0,"byteOffset":62320,"byteLength":4},{"buffer":0,"byteOffset":62324,"byteLength":16},{"buffer":0,"byteOffset":62340,"byteLength":4},{"buffer":0,"byteOffset":62344,"byteLength":16},{"buffer":0,"byteOffset":62360,"byteLength":4},{"buffer":0,"byteOffset":62364,"byteLength":16},{"buffer":0,"byteOffset":62380,"byteLength":4},{"buffer":0,"byteOffset":62384,"byteLength":16},{"buffer":0,"byteOffset":62400,"byteLength":40},{"buffer":0,"byteOffset":62440,"byteLength":120},{"buffer":0,"byteOffset":62560,"byteLength":4},{"buffer":0,"byteOffset":62564,"byteLength":12},{"buffer":0,"byteOffset":62576,"byteLength":4},{"buffer":0,"byteOffset":62580,"byteLength":16},{"buffer":0,"byteOffset":62596,"byteLength":4},{"buffer":0,"byteOffset":62600,"byteLength":12},{"buffer":0,"byteOffset":62612,"byteLength":4},{"buffer":0,"byteOffset":62616,"byteLength":16}],"buffers":[{"byteLength":62632,"uri":"data:application/octet-stream;base64,"}],"accessors":[{"bufferView":0,"componentType":5126,"count":1048,"max":[0.8125,0.875,0.21875],"min":[-0.8125,-0.5,-0.22187499701976776],"type":"VEC3"},{"bufferView":1,"componentType":5126,"count":1048,"max":[1,1,1],"min":[-1,-1,-1],"type":"VEC3"},{"bufferView":2,"componentType":5126,"count":1048,"max":[0.640625,0.640625],"min":[0,0],"type":"VEC2"},{"bufferView":3,"componentType":5123,"count":1048,"max":[0,11,0,0],"min":[0,0,0,0],"type":"VEC4"},{"bufferView":4,"componentType":5126,"count":1048,"max":[0,1,0,0],"min":[0,1,0,0],"type":"VEC4"},{"bufferView":5,"componentType":5123,"count":264,"max":[191],"min":[0],"type":"SCALAR"},{"bufferView":6,"componentType":5123,"count":30,"max":[211],"min":[192],"type":"SCALAR"},{"bufferView":7,"componentType":5123,"count":1128,"max":[1047],"min":[212],"type":"SCALAR"},{"bufferView":8,"componentType":5126,"count":12,"max":[1,0,0,0,0,1,0,0,0,0,1,0,0.5,0.4375,0.375,1],"min":[1,0,0,0,0,1,0,0,0,0,1,0,-0.5,-0.453125,-0.03125,1],"type":"MAT4"},{"bufferView":9,"componentType":5126,"count":1,"max":[0],"min":[0],"type":"SCALAR"},{"bufferView":10,"componentType":5126,"count":1,"max":[0,0,0,1],"min":[0,0,0,1],"type":"VEC4"},{"bufferView":11,"componentType":5126,"count":1,"max":[0],"min":[0],"type":"SCALAR"},{"bufferView":12,"componentType":5126,"count":1,"max":[0,0,-0.3826834261417389,0.9238795042037964],"min":[0,0,-0.3826834261417389,0.9238795042037964],"type":"VEC4"},{"bufferView":13,"componentType":5126,"count":1,"max":[0],"min":[0],"type":"SCALAR"},{"bufferView":14,"componentType":5126,"count":1,"max":[0,0,0.3826834261417389,0.9238795042037964],"min":[0,0,0.3826834261417389,0.9238795042037964],"type":"VEC4"},{"bufferView":15,"componentType":5126,"count":1,"max":[0],"min":[0],"type":"SCALAR"},{"bufferView":16,"componentType":5126,"count":1,"max":[0.3826834261417389,0,0,0.9238795042037964],"min":[0.3826834261417389,0,0,0.9238795042037964],"type":"VEC4"},{"bufferView":17,"componentType":5126,"count":1,"max":[0],"min":[0],"type":"SCALAR"},{"bufferView":18,"componentType":5126,"count":1,"max":[-0.3826834261417389,0,0,0.9238795042037964],"min":[-0.3826834261417389,0,0,0.9238795042037964],"type":"VEC4"},{"bufferView":19,"componentType":5126,"count":10,"max":[0.5],"min":[0],"type":"SCALAR"},{"bufferView":20,"componentType":5126,"count":10,"max":[0,0.75,0],"min":[0,0.5,0],"type":"VEC3"},{"bufferView":21,"componentType":5126,"count":1,"max":[0],"min":[0],"type":"SCALAR"},{"bufferView":22,"componentType":5126,"count":1,"max":[0.25,0.25,-0.375],"min":[0.25,0.25,-0.375],"type":"VEC3"},{"bufferView":23,"componentType":5126,"count":1,"max":[0],"min":[0],"type":"SCALAR"},{"bufferView":24,"componentType":5126,"count":1,"max":[0,0,-0.6915130615234375,0.7223639488220215],"min":[0,0,-0.6915130615234375,0.7223639488220215],"type":"VEC4"},{"bufferView":25,"componentType":5126,"count":1,"max":[0],"min":[0],"type":"SCALAR"},{"bufferView":26,"componentType":5126,"count":1,"max":[-0.25,0.25,-0.375],"min":[-0.25,0.25,-0.375],"type":"VEC3"},{"bufferView":27,"componentType":5126,"count":1,"max":[0],"min":[0],"type":"SCALAR"},{"bufferView":28,"componentType":5126,"count":1,"max":[0,0,0.7071067690849304,0.7071067690849304],"min":[0,0,0.7071067690849304,0.7071067690849304],"type":"VEC4"}],"materials":[{"pbrMetallicRoughness":{"metallicFactor":0,"roughnessFactor":1,"baseColorTexture":{"index":0}},"alphaMode":"MASK","alphaCutoff":0.05,"doubleSided":true},{"pbrMetallicRoughness":{"metallicFactor":0,"roughnessFactor":1,"baseColorTexture":{"index":1}},"alphaMode":"MASK","alphaCutoff":0.05,"doubleSided":true}],"textures":[{"sampler":0,"source":0,"name":"texture2.png"},{"sampler":1,"source":1,"name":"texture.png"}],"samplers":[{"magFilter":9728,"minFilter":9728,"wrapS":33071,"wrapT":33071},{"magFilter":9728,"minFilter":9728,"wrapS":33071,"wrapT":33071}],"images":[{"mimeType":"image/png","uri":"data:image/png;base64,"},{"mimeType":"image/png","uri":"data:image/png;base64,"}],"meshes":[{"primitives":[{"mode":4,"attributes":{"POSITION":0,"NORMAL":1,"TEXCOORD_0":2,"JOINTS_0":3,"WEIGHTS_0":4},"indices":5,"material":0},{"mode":4,"attributes":{"POSITION":0,"NORMAL":1,"TEXCOORD_0":2,"JOINTS_0":3,"WEIGHTS_0":4},"indices":6,"material":1},{"mode":4,"attributes":{"POSITION":0,"NORMAL":1,"TEXCOORD_0":2,"JOINTS_0":3,"WEIGHTS_0":4},"indices":7,"material":0}]}],"skins":[{"inverseBindMatrices":8,"joints":[11,0,3,2,1,6,5,4,8,7,10,9],"skeleton":11}],"animations":[{"name":"animation","samplers":[{"input":9,"output":10,"interpolation":"LINEAR"},{"input":11,"output":12,"interpolation":"LINEAR"},{"input":13,"output":14,"interpolation":"LINEAR"},{"input":15,"output":16,"interpolation":"LINEAR"},{"input":17,"output":18,"interpolation":"LINEAR"}],"channels":[{"sampler":0,"target":{"node":0,"path":"rotation"}},{"sampler":1,"target":{"node":8,"path":"rotation"}},{"sampler":2,"target":{"node":10,"path":"rotation"}},{"sampler":3,"target":{"node":3,"path":"rotation"}},{"sampler":4,"target":{"node":6,"path":"rotation"}}]},{"name":"bounce","samplers":[{"input":19,"output":20,"interpolation":"LINEAR"},{"input":21,"output":22,"interpolation":"LINEAR"},{"input":23,"output":24,"interpolation":"LINEAR"},{"input":25,"output":26,"interpolation":"LINEAR"},{"input":27,"output":28,"interpolation":"LINEAR"}],"channels":[{"sampler":0,"target":{"node":11,"path":"translation"}},{"sampler":1,"target":{"node":8,"path":"translation"}},{"sampler":2,"target":{"node":7,"path":"rotation"}},{"sampler":3,"target":{"node":10,"path":"translation"}},{"sampler":4,"target":{"node":9,"path":"rotation"}}]}]}