{"asset":{"version":"2.0","generator":"Blockbench 5.0.3 glTF exporter"},"scenes":[{"nodes":[12],"name":"blockbench_export"}],"scene":0,"nodes":[{"translation":[0.25,0.625,-0.375],"name":"face2"},{"translation":[0,-0.375,0],"name":"knee1"},{"translation":[0.25,0,0],"name":"im right","children":[1]},{"translation":[0,-0.4375,0],"name":"knee2"},{"translation":[-0.25,0.0625,0],"name":"fuck you","children":[3]},{"name":"legs","children":[2,4]},{"translation":[0,-0.4375,0],"name":"knee3"},{"translation":[0.5,0.375,0],"name":"im_right2","children":[6]},{"translation":[0,-0.4375,0],"name":"knee4"},{"translation":[-0.5,0.375,0],"name":"fuck_you2","children":[8]},{"name":"arms","children":[7,9]},{"name":"face","children":[0,5,10]},{"translation":[0,1,0],"name":"face","mesh":0,"children":[11],"skin":0}],"bufferViews":[{"buffer":0,"byteOffset":0,"byteLength":5472,"target":34962,"byteStride":12},{"buffer":0,"byteOffset":5472,"byteLength":5472,"target":34962,"byteStride":12},{"buffer":0,"byteOffset":10944,"byteLength":3648,"target":34962,"byteStride":8},{"buffer":0,"byteOffset":14592,"byteLength":3648,"target":34962,"byteStride":8},{"buffer":0,"byteOffset":18240,"byteLength":7296,"target":34962,"byteStride":16},{"buffer":0,"byteOffset":25536,"byteLength":1344,"target":34963},{"buffer":0,"byteOffset":26880,"byteLength":768},{"buffer":0,"byteOffset":27648,"byteLength":12},{"buffer":0,"byteOffset":27660,"byteLength":36},{"buffer":0,"byteOffset":27696,"byteLength":12},{"buffer":0,"byteOffset":27708,"byteLength":36},{"buffer":0,"byteOffset":27744,"byteLength":16},{"buffer":0,"byteOffset":27760,"byteLength":64},{"buffer":0,"byteOffset":27824,"byteLength":8},{"buffer":0,"byteOffset":27832,"byteLength":24},{"buffer":0,"byteOffset":27856,"byteLength":4},{"buffer":0,"byteOffset":27860,"byteLength":12},{"buffer":0,"byteOffset":27872,"byteLength":8},{"buffer":0,"byteOffset":27880,"byteLength":24},{"buffer":0,"byteOffset":27904,"byteLength":8},{"buffer":0,"byteOffset":27912,"byteLength":24},{"buffer":0,"byteOffset":27936,"byteLength":4},{"buffer":0,"byteOffset":27940,"byteLength":12},{"buffer":0,"byteOffset":27952,"byteLength":8},{"buffer":0,"byteOffset":27960,"byteLength":32},{"buffer":0,"byteOffset":27992,"byteLength":8},{"buffer":0,"byteOffset":28000,"byteLength":24},{"buffer":0,"byteOffset":28024,"byteLength":4},{"buffer":0,"byteOffset":28028,"byteLength":12},{"buffer":0,"byteOffset":28040,"byteLength":4},{"buffer":0,"byteOffset":28044,"byteLength":12},{"buffer":0,"byteOffset":28056,"byteLength":4},{"buffer":0,"byteOffset":28060,"byteLength":12},{"buffer":0,"byteOffset":28072,"byteLength":8},{"buffer":0,"byteOffset":28080,"byteLength":24},{"buffer":0,"byteOffset":28104,"byteLength":8},{"buffer":0,"byteOffset":28112,"byteLength":24},{"buffer":0,"byteOffset":28136,"byteLength":4},{"buffer":0,"byteOffset":28140,"byteLength":12},{"buffer":0,"byteOffset":28152,"byteLength":8},{"buffer":0,"byteOffset":28160,"byteLength":24},{"buffer":0,"byteOffset":28184,"byteLength":4},{"buffer":0,"byteOffset":28188,"byteLength":12},{"buffer":0,"byteOffset":28200,"byteLength":4},{"buffer":0,"byteOffset":28204,"byteLength":12},{"buffer":0,"byteOffset":28216,"byteLength":4},{"buffer":0,"byteOffset":28220,"byteLength":12},{"buffer":0,"byteOffset":28232,"byteLength":4},{"buffer":0,"byteOffset":28236,"byteLength":12}],"buffers":[{"byteLength":28248,"uri":"data:application/octet-stream;base64,"}],"accessors":[{"bufferView":0,"componentType":5126,"count":456,"max":[0.5625,0.875,0.375],"min":[-0.5625,-1,-0.4375],"type":"VEC3"},{"bufferView":1,"componentType":5126,"count":456,"max":[1,1,1],"min":[-1,-1,-1],"type":"VEC3"},{"bufferView":2,"componentType":5126,"count":456,"max":[0.625,0.765625],"min":[0,0],"type":"VEC2"},{"bufferView":3,"componentType":5123,"count":456,"max":[0,11,0,0],"min":[0,0,0,0],"type":"VEC4"},{"bufferView":4,"componentType":5126,"count":456,"max":[0,1,0,0],"min":[0,1,0,0],"type":"VEC4"},{"bufferView":5,"componentType":5123,"count":672,"max":[455],"min":[0],"type":"SCALAR"},{"bufferView":6,"componentType":5126,"count":12,"max":[1,0,0,0,0,1,0,0,0,0,1,0,0.5,0.375,0.375,1],"min":[1,0,0,0,0,1,0,0,0,0,1,0,-0.5,-0.625,0,1],"type":"MAT4"},{"bufferView":7,"componentType":5126,"count":3,"max":[1],"min":[0],"type":"SCALAR"},{"bufferView":8,"componentType":5126,"count":3,"max":[0.25,0.25,0],"min":[0.25,0,0],"type":"VEC3"},{"bufferView":9,"componentType":5126,"count":3,"max":[1],"min":[0],"type":"SCALAR"},{"bufferView":10,"componentType":5126,"count":3,"max":[-0.25,0.3125,0],"min":[-0.25,0.0625,0],"type":"VEC3"},{"bufferView":11,"componentType":5126,"count":4,"max":[1],"min":[0],"type":"SCALAR"},{"bufferView":12,"componentType":5126,"count":4,"max":[0,0.8660253882408142,0,1],"min":[0,0,0,-1],"type":"VEC4"},{"bufferView":13,"componentType":5126,"count":2,"max":[1],"min":[0],"type":"SCALAR"},{"bufferView":14,"componentType":5126,"count":2,"max":[0,1,0],"min":[0,0,0],"type":"VEC3"},{"bufferView":15,"componentType":5126,"count":1,"max":[0],"min":[0],"type":"SCALAR"},{"bufferView":16,"componentType":5126,"count":1,"max":[0.25,0.625,-0.375],"min":[0.25,0.625,-0.375],"type":"VEC3"},{"bufferView":17,"componentType":5126,"count":2,"max":[1],"min":[0],"type":"SCALAR"},{"bufferView":18,"componentType":5126,"count":2,"max":[0,1.125,0.0625],"min":[0,0,0],"type":"VEC3"},{"bufferView":19,"componentType":5126,"count":2,"max":[1],"min":[0],"type":"SCALAR"},{"bufferView":20,"componentType":5126,"count":2,"max":[0.25,0.125,0],"min":[0.1875,0,0],"type":"VEC3"},{"bufferView":21,"componentType":5126,"count":1,"max":[1],"min":[1],"type":"SCALAR"},{"bufferView":22,"componentType":5126,"count":1,"max":[2,0.6000000238418579,2],"min":[2,0.6000000238418579,2],"type":"VEC3"},{"bufferView":23,"componentType":5126,"count":2,"max":[1],"min":[0],"type":"SCALAR"},{"bufferView":24,"componentType":5126,"count":2,"max":[0,0.7071067690849304,0,1],"min":[0,0,0,0.7071067690849304],"type":"VEC4"},{"bufferView":25,"componentType":5126,"count":2,"max":[1],"min":[0],"type":"SCALAR"},{"bufferView":26,"componentType":5126,"count":2,"max":[-0.1875,0.625,0],"min":[-0.25,0.0625,0],"type":"VEC3"},{"bufferView":27,"componentType":5126,"count":1,"max":[1],"min":[1],"type":"SCALAR"},{"bufferView":28,"componentType":5126,"count":1,"max":[2,1.5,2.4000000953674316],"min":[2,1.5,2.4000000953674316],"type":"VEC3"},{"bufferView":29,"componentType":5126,"count":1,"max":[0],"min":[0],"type":"SCALAR"},{"bufferView":30,"componentType":5126,"count":1,"max":[0,-0.375,0],"min":[0,-0.375,0],"type":"VEC3"},{"bufferView":31,"componentType":5126,"count":1,"max":[0],"min":[0],"type":"SCALAR"},{"bufferView":32,"componentType":5126,"count":1,"max":[0,-0.4375,0],"min":[0,-0.4375,0],"type":"VEC3"},{"bufferView":33,"componentType":5126,"count":2,"max":[1],"min":[0],"type":"SCALAR"},{"bufferView":34,"componentType":5126,"count":2,"max":[0,0.6875,0],"min":[0,0,0],"type":"VEC3"},{"bufferView":35,"componentType":5126,"count":2,"max":[1],"min":[0],"type":"SCALAR"},{"bufferView":36,"componentType":5126,"count":2,"max":[1,1,1],"min":[0.8999999761581421,1,1],"type":"VEC3"},{"bufferView":37,"componentType":5126,"count":1,"max":[0],"min":[0],"type":"SCALAR"},{"bufferView":38,"componentType":5126,"count":1,"max":[0.5,0.375,0],"min":[0.5,0.375,0],"type":"VEC3"},{"bufferView":39,"componentType":5126,"count":2,"max":[1],"min":[0],"type":"SCALAR"},{"bufferView":40,"componentType":5126,"count":2,"max":[2,1,2],"min":[1,0.5,1],"type":"VEC3"},{"bufferView":41,"componentType":5126,"count":1,"max":[0],"min":[0],"type":"SCALAR"},{"bufferView":42,"componentType":5126,"count":1,"max":[0,-0.4375,0],"min":[0,-0.4375,0],"type":"VEC3"},{"bufferView":43,"componentType":5126,"count":1,"max":[0],"min":[0],"type":"SCALAR"},{"bufferView":44,"componentType":5126,"count":1,"max":[-0.5,0.375,0],"min":[-0.5,0.375,0],"type":"VEC3"},{"bufferView":45,"componentType":5126,"count":1,"max":[1],"min":[1],"type":"SCALAR"},{"bufferView":46,"componentType":5126,"count":1,"max":[2,0.5,2],"min":[2,0.5,2],"type":"VEC3"},{"bufferView":47,"componentType":5126,"count":1,"max":[0],"min":[0],"type":"SCALAR"},{"bufferView":48,"componentType":5126,"count":1,"max":[0,-0.4375,0],"min":[0,-0.4375,0],"type":"VEC3"}],"materials":[{"pbrMetallicRoughness":{"metallicFactor":0,"roughnessFactor":1,"baseColorTexture":{"index":0}},"alphaMode":"MASK","alphaCutoff":0.05,"doubleSided":true}],"textures":[{"sampler":0,"source":0,"name":"texture"}],"samplers":[{"magFilter":9728,"minFilter":9728,"wrapS":33071,"wrapT":33071}],"images":[{"mimeType":"image/png","uri":"data:image/png;base64,"}],"meshes":[{"primitives":[{"mode":4,"attributes":{"POSITION":0,"NORMAL":1,"TEXCOORD_0":2,"JOINTS_0":3,"WEIGHTS_0":4},"indices":5,"material":0}]}],"skins":[{"inverseBindMatrices":6,"joints":[11,0,5,2,1,4,3,10,7,6,9,8],"skeleton":11}],"animations":[{"name":"walk","samplers":[{"input":7,"output":8,"interpolation":"STEP"},{"input":9,"output":10,"interpolation":"STEP"}],"channels":[{"sampler":0,"target":{"node":2,"path":"translation"}},{"sampler":1,"target":{"node":4,"path":"translation"}}]},{"name":"spin","samplers":[{"input":11,"output":12,"interpolation":"LINEAR"}],"channels":[{"sampler":0,"target":{"node":11,"path":"rotation"}}]},{"name":"fukc yur","samplers":[{"input":13,"output":14,"interpolation":"LINEAR"},{"input":15,"output":16,"interpolation":"LINEAR"},{"input":17,"output":18,"interpolation":"LINEAR"},{"input":19,"output":20,"interpolation":"LINEAR"},{"input":21,"output":22,"interpolation":"LINEAR"},{"input":23,"output":24,"interpolation":"LINEAR"},{"input":25,"output":26,"interpolation":"LINEAR"},{"input":27,"output":28,"interpolation":"LINEAR"},{"input":29,"output":30,"interpolation":"LINEAR"},{"input":31,"output":32,"interpolation":"LINEAR"},{"input":33,"output":34,"interpolation":"LINEAR"},{"input":35,"output":36,"interpolation":"LINEAR"},{"input":37,"output":38,"interpolation":"LINEAR"},{"input":39,"output":40,"interpolation":"LINEAR"},{"input":41,"output":42,"interpolation":"LINEAR"},{"input":43,"output":44,"interpolation":"LINEAR"},{"input":45,"output":46,"interpolation":"LINEAR"},{"input":47,"output":48,"interpolation":"LINEAR"}],"channels":[{"sampler":0,"target":{"node":11,"path":"translation"}},{"sampler":1,"target":{"node":0,"path":"translation"}},{"sampler":2,"target":{"node":5,"path":"translation"}},{"sampler":3,"target":{"node":2,"path":"translation"}},{"sampler":4,"target":{"node":2,"path":"scale"}},{"sampler":5,"target":{"node":4,"path":"rotation"}},{"sampler":6,"target":{"node":4,"path":"translation"}},{"sampler":7,"target":{"node":4,"path":"scale"}},{"sampler":8,"target":{"node":1,"path":"translation"}},{"sampler":9,"target":{"node":3,"path":"translation"}},{"sampler":10,"target":{"node":10,"path":"translation"}},{"sampler":11,"target":{"node":10,"path":"scale"}},{"sampler":12,"target":{"node":7,"path":"translation"}},{"sampler":13,"target":{"node":7,"path":"scale"}},{"sampler":14,"target":{"node":6,"path":"translation"}},{"sampler":15,"target":{"node":9,"path":"translation"}},{"sampler":16,"target":{"node":9,"path":"scale"}},{"sampler":17,"target":{"node":8,"path":"translation"}}]}]}